# xmcd CD database file
#
# Track frame offsets:
#	150
#	11542
#	23767
#	35762
#	48220
#	60372
#	73787
#	84335
#	97340
#	106880
#	122125
#	134477
#	146795
#	159770
#	169292
#	179962
#	189092
#	201077
#	211962
#	223887
#
# Disc length: 3307 seconds
#
# Revision: 4
# Processed by: cddbd v1.5.2PL0 Copyright (c) Steve Scherf et al.
# Submitted via: CDex 1.51
#
DISCID=270ce914
DTITLE=Smokey Robinson and The Miracles - Along Came Love - Motown Lost and Found
DYEAR=1999
DGENRE=Soul
TTITLE0=I Think We Can Make It
TTITLE1=I Love You Baby
TTITLE2=My Mama Done Told Me
TTITLE3=Along Came Love
TTITLE4=Come To Me
TTITLE5=You've Got To Pay The Bills
TTITLE6=(i Need Some) Money
TTITLE7=Would I Love You
TTITLE8=If I Were A Bell
TTITLE9=Easy Street
TTITLE10=Don't Think It's Me
TTITLE11=I Like It Like That
TTITLE12=(talking 'bout) Nobody But My Baby
TTITLE13=Yes, No, Maybe So
TTITLE14=Mr. Misery (Let Me Be)
TTITLE15=Don't Say Bye-Bye
TTITLE16=I Need A Change
TTITLE17=I Need Somebody
TTITLE18=Please Say You Love Me
TTITLE19=Shop Around
EXTD=YEAR: 1999
EXTT0=
EXTT1=
EXTT2=
EXTT3=
EXTT4=
EXTT5=
EXTT6=
EXTT7=
EXTT8=
EXTT9=
EXTT10=
EXTT11=
EXTT12=
EXTT13=
EXTT14=
EXTT15=
EXTT16=
EXTT17=
EXTT18=
EXTT19=
PLAYORDER=
